<?xml version="1.0" standalone="no"?>
<!-- Generator: Adobe Fireworks 10, Export SVG Extension by Aaron Beall (http://fireworks.abeall.com) . Version: 0.6.1  -->
<!DOCTYPE svg PUBLIC "-//W3C//DTD SVG 1.1//EN" "http://www.w3.org/Graphics/SVG/1.1/DTD/svg11.dtd">
<svg id="logo-Page%201" viewBox="0 0 690 690" style="background-color:#ffffff00" version="1.1"
	xmlns="http://www.w3.org/2000/svg" xmlns:xlink="http://www.w3.org/1999/xlink" xml:space="preserve"
	x="0px" y="0px" width="690px" height="690px"
>
	<g id="Background">
		<rect visibility="hidden" x="0" y="0" width="690" height="690" stroke="#ffffff00" stroke-width="1" fill="#8e6a9b"/>
		<path d="M 392.5 155.5 L 392.5 210.5 C 385.5 269.5 372.5 334.5 309.5 390.5 C 302.5 377.5 292.5 317.5 292.5 295.5 L 292.5 272.5 C 293.5 261.5 294.5 249.5 295.5 237.5 C 300.5 194.5 318.5 151.5 339.5 108.5 C 348.5 89.5 351.5 70.5 355.5 51.5 C 357.5 36.5 358.5 20.5 359.5 4.5 C 369.5 27.5 392.5 121.5 392.5 155.5 Z" fill="#ffffff"/>
		<path d="M 296.5 412.5 C 296.5 424.5 292.5 447.5 290.5 458.5 C 222.5 405.5 204.5 339.5 199.5 283.5 C 199.5 278.5 197.5 272.5 196.5 266.5 C 194.5 252.5 178.5 233.5 169.5 220.5 C 257.5 273.5 296.5 342.5 296.5 412.5 Z" stroke="#ffffff00" stroke-width="1" fill="#ffffff"/>
		<path d="M 318.5 523.5 L 300.5 523.5 C 279.5 521.5 260.5 516.5 240.5 510.5 C 197.5 498.5 156.5 427.5 115.5 421.5 C 129.5 418.5 154.5 416.5 157.5 416.5 C 215.5 416.5 279.5 446.5 318.5 523.5 Z" stroke="#ffffff00" stroke-width="1" fill="#ffffff"/>
		<path d="M 383.5 547.5 C 360.5 570.5 298.5 592.5 269.5 592.5 L 233.5 592.5 C 217.5 594.5 196.5 597.5 181.5 603.5 C 219.5 552.5 270.5 534.5 315.5 534.5 C 337.5 534.5 357.5 536.5 383.5 547.5 Z" stroke="#ffffff00" stroke-width="1" fill="#ffffff"/>
		<path d="M 428.5 521.5 C 427.5 532.5 425.5 543.5 424.5 554.5 C 421.5 582.5 403.5 612.5 378.5 643.5 C 368.5 655.5 359.5 673.5 357.5 686.5 C 355.5 678.5 351.5 663.5 351.5 661.5 L 351.5 638.5 C 355.5 598.5 382.5 553.5 428.5 515.5 L 428.5 521.5 Z" stroke="#ffffff00" stroke-width="1" fill="#ffffff"/>
		<path d="M 428.5 477.5 C 459.5 482.5 493.5 523.5 507.5 552.5 C 512.5 563.5 524.5 574.5 536.5 585.5 C 502.5 579.5 437.5 539.5 429.5 495.5 C 428.5 489.5 427.5 483.5 426.5 477.5 L 428.5 477.5 Z" stroke="#ffffff00" stroke-width="1" fill="#ffffff"/>
		<path d="M 497.5 455.5 C 505.5 457.5 516.5 459.5 525.5 459.5 C 509.5 465.5 478.5 472.5 459.5 472.5 C 442.5 472.5 425.5 469.5 408.5 462.5 C 423.5 450.5 434.5 442.5 448.5 442.5 C 464.5 442.5 484.5 452.5 497.5 455.5 Z" stroke="#ffffff00" stroke-width="1" fill="#ffffff"/>
		<path d="M 408.5 485.5 C 408.5 496.5 398.5 504.5 390.5 504.5 C 379.5 504.5 372.5 494.5 372.5 485.5 C 372.5 474.5 379.5 467.5 390.5 467.5 C 403.5 467.5 408.5 476.5 408.5 485.5 Z" stroke="#ffffff00" stroke-width="1" fill="#ffffff"/>
	</g>
	<g id="Layer%201">
	</g>
</svg>