<?xml version="1.0" standalone="no"?>
<!-- Generator: Adobe Fireworks 10, Export SVG Extension by Aaron Beall (http://fireworks.abeall.com) . Version: 0.6.1  -->
<!DOCTYPE svg PUBLIC "-//W3C//DTD SVG 1.1//EN" "http://www.w3.org/Graphics/SVG/1.1/DTD/svg11.dtd">
<svg id="logo_vector_black-Page%201" viewBox="0 0 700 700" style="background-color:#8e6a9b" version="1.1"
	xmlns="http://www.w3.org/2000/svg" xmlns:xlink="http://www.w3.org/1999/xlink" xml:space="preserve"
	x="0px" y="0px" width="700px" height="700px"
>
	<g id="Background">
		<path d="M 129.5 298.5 C 130.5 293.5 130.5 287.5 129.5 280.5 L 152.5 280.5 L 152.5 423.5 C 150.5 467.5 116.5 483.5 88.5 483.5 C 77.5 483.5 69.5 484.5 56.5 476.5 L 56.5 451.5 C 64.5 460.5 79.5 463.5 88.5 463.5 C 110.5 463.5 125.5 453.5 130.5 422.5 L 129.5 393.5 C 117.5 408.5 97.5 414.5 84.5 414.5 C 42.5 414.5 22.5 378.5 22.5 345.5 C 22.5 310.5 46.5 277.5 84.5 277.5 C 100.5 277.5 111.5 279.5 129.5 298.5 ZM 131.5 344.5 C 131.5 369.5 116.5 393.5 88.5 393.5 C 57.5 393.5 45.5 366.5 45.5 344.5 C 45.5 320.5 60.5 298.5 87.5 298.5 C 117.5 298.5 131.5 322.5 131.5 344.5 Z" stroke="#ffffff00" stroke-width="1" fill="#ffffff"/>
		<path d="M 294.5 316.5 C 296.5 320.5 299.5 329.5 299.5 332.5 L 299.5 350.5 L 197.5 350.5 L 197.5 357.5 C 199.5 380.5 222.5 394.5 239.5 394.5 C 252.5 394.5 267.5 387.5 280.5 367.5 C 286.5 371.5 292.5 374.5 298.5 378.5 C 281.5 406.5 261.5 414.5 238.5 414.5 C 198.5 414.5 174.5 383.5 174.5 347.5 C 174.5 312.5 193.5 277.5 237.5 277.5 C 258.5 277.5 282.5 285.5 294.5 316.5 ZM 256.5 302.5 C 260.5 304.5 275.5 320.5 275.5 327.5 L 275.5 331.5 L 199.5 331.5 L 199.5 327.5 C 205.5 305.5 223.5 298.5 237.5 298.5 C 246.5 298.5 246.5 297.5 256.5 302.5 Z" stroke="#ffffff00" stroke-width="1" fill="#ffffff"/>
		<path d="M 425.5 326.5 L 425.5 411.5 L 403.5 411.5 L 403.5 324.5 C 399.5 302.5 391.5 297.5 375.5 297.5 C 346.5 297.5 342.5 324.5 342.5 343.5 L 342.5 411.5 L 321.5 411.5 L 321.5 280.5 L 342.5 280.5 C 342.5 285.5 342.5 291.5 343.5 296.5 C 357.5 279.5 366.5 277.5 381.5 277.5 C 413.5 277.5 425.5 300.5 425.5 326.5 Z" stroke="#ffffff00" stroke-width="1" fill="#ffffff"/>
		<path d="M 580.5 345.5 C 580.5 383.5 549.5 414.5 512.5 414.5 C 473.5 414.5 443.5 383.5 443.5 345.5 C 443.5 307.5 473.5 277.5 511.5 277.5 C 552.5 277.5 580.5 310.5 580.5 345.5 ZM 558.5 345.5 C 558.5 374.5 536.5 393.5 511.5 393.5 C 480.5 393.5 466.5 368.5 466.5 345.5 C 466.5 319.5 482.5 298.5 512.5 298.5 C 541.5 298.5 558.5 322.5 558.5 345.5 Z" stroke="#ffffff00" stroke-width="1" fill="#ffffff"/>
		<path d="M 669.5 301.5 C 664.5 303.5 658.5 307.5 652.5 310.5 C 640.5 301.5 642.5 297.5 633.5 297.5 C 625.5 297.5 617.5 303.5 617.5 311.5 C 617.5 335.5 678.5 328.5 678.5 371.5 C 678.5 398.5 655.5 414.5 633.5 414.5 C 616.5 414.5 597.5 405.5 588.5 382.5 C 593.5 379.5 600.5 376.5 607.5 373.5 C 612.5 386.5 622.5 394.5 633.5 394.5 C 646.5 394.5 655.5 384.5 655.5 374.5 C 655.5 345.5 596.5 352.5 596.5 314.5 C 596.5 291.5 615.5 277.5 634.5 277.5 C 648.5 277.5 662.5 283.5 669.5 301.5 Z" stroke="#ffffff00" stroke-width="1" fill="#ffffff"/>
	</g>
	<g id="Layer%201">
	</g>
</svg>