<?xml version="1.0" standalone="no"?>
<!-- Generator: Adobe Fireworks 10, Export SVG Extension by Aaron Beall (http://fireworks.abeall.com) . Version: 0.6.1  -->
<!DOCTYPE svg PUBLIC "-//W3C//DTD SVG 1.1//EN" "http://www.w3.org/Graphics/SVG/1.1/DTD/svg11.dtd">
<svg id="logo_vector_black-Page%201" viewBox="0 0 657 207" style="background-color:#ffffff00" version="1.1"
	xmlns="http://www.w3.org/2000/svg" xmlns:xlink="http://www.w3.org/1999/xlink" xml:space="preserve"
	x="0px" y="0px" width="657px" height="207px"
>
	<g id="Background">
		<path d="M 107.5 21.5 C 108.5 16.5 108.5 10.5 107.5 3.5 L 130.5 3.5 L 130.5 146.5 C 128.5 190.5 94.5 206.5 66.5 206.5 C 55.5 206.5 47.5 207.5 34.5 199.5 L 34.5 174.5 C 42.5 183.5 57.5 186.5 66.5 186.5 C 88.5 186.5 103.5 176.5 108.5 145.5 L 107.5 116.5 C 95.5 131.5 75.5 137.5 62.5 137.5 C 20.5 137.5 0.5 101.5 0.5 68.5 C 0.5 33.5 24.5 0.5 62.5 0.5 C 78.5 0.5 89.5 2.5 107.5 21.5 ZM 109.5 67.5 C 109.5 92.5 94.5 116.5 66.5 116.5 C 35.5 116.5 23.5 89.5 23.5 67.5 C 23.5 43.5 38.5 21.5 65.5 21.5 C 95.5 21.5 109.5 45.5 109.5 67.5 Z" stroke="#ffffff00" stroke-width="1" fill="#333333"/>
		<path d="M 272.5 39.5 C 274.5 43.5 277.5 52.5 277.5 55.5 L 277.5 73.5 L 175.5 73.5 L 175.5 80.5 C 177.5 103.5 200.5 117.5 217.5 117.5 C 230.5 117.5 245.5 110.5 258.5 90.5 C 264.5 94.5 270.5 97.5 276.5 101.5 C 259.5 129.5 239.5 137.5 216.5 137.5 C 176.5 137.5 152.5 106.5 152.5 70.5 C 152.5 35.5 171.5 0.5 215.5 0.5 C 236.5 0.5 260.5 8.5 272.5 39.5 ZM 234.5 25.5 C 238.5 27.5 253.5 43.5 253.5 50.5 L 253.5 54.5 L 177.5 54.5 L 177.5 50.5 C 183.5 28.5 201.5 21.5 215.5 21.5 C 224.5 21.5 224.5 20.5 234.5 25.5 Z" stroke="#ffffff00" stroke-width="1" fill="#333333"/>
		<path d="M 403.5 49.5 L 403.5 134.5 L 381.5 134.5 L 381.5 47.5 C 377.5 25.5 369.5 20.5 353.5 20.5 C 324.5 20.5 320.5 47.5 320.5 66.5 L 320.5 134.5 L 299.5 134.5 L 299.5 3.5 L 320.5 3.5 C 320.5 8.5 320.5 14.5 321.5 19.5 C 335.5 2.5 344.5 0.5 359.5 0.5 C 391.5 0.5 403.5 23.5 403.5 49.5 Z" stroke="#ffffff00" stroke-width="1" fill="#333333"/>
		<path d="M 558.5 68.5 C 558.5 106.5 527.5 137.5 490.5 137.5 C 451.5 137.5 421.5 106.5 421.5 68.5 C 421.5 30.5 451.5 0.5 489.5 0.5 C 530.5 0.5 558.5 33.5 558.5 68.5 ZM 536.5 68.5 C 536.5 97.5 514.5 116.5 489.5 116.5 C 458.5 116.5 444.5 91.5 444.5 68.5 C 444.5 42.5 460.5 21.5 490.5 21.5 C 519.5 21.5 536.5 45.5 536.5 68.5 Z" stroke="#ffffff00" stroke-width="1" fill="#333333"/>
		<path d="M 647.5 24.5 C 642.5 26.5 636.5 30.5 630.5 33.5 C 618.5 24.5 620.5 20.5 611.5 20.5 C 603.5 20.5 595.5 26.5 595.5 34.5 C 595.5 58.5 656.5 51.5 656.5 94.5 C 656.5 121.5 633.5 137.5 611.5 137.5 C 594.5 137.5 575.5 128.5 566.5 105.5 C 571.5 102.5 578.5 99.5 585.5 96.5 C 590.5 109.5 600.5 117.5 611.5 117.5 C 624.5 117.5 633.5 107.5 633.5 97.5 C 633.5 68.5 574.5 75.5 574.5 37.5 C 574.5 14.5 593.5 0.5 612.5 0.5 C 626.5 0.5 640.5 6.5 647.5 24.5 Z" stroke="#ffffff00" stroke-width="1" fill="#333333"/>
	</g>
	<g id="Layer%201">
	</g>
</svg>