<?xml version="1.0" standalone="no"?>
<!DOCTYPE svg PUBLIC "-//W3C//DTD SVG 20010904//EN"
 "http://www.w3.org/TR/2001/REC-SVG-20010904/DTD/svg10.dtd">
<svg version="1.0" xmlns="http://www.w3.org/2000/svg"
 width="2000pt" height="2000pt" viewBox="0 0 2000 2000"
 preserveAspectRatio="xMidYMid meet">

<g transform="translate(-520,2200) scale(0.1,-0.1)"
fill="#000000" stroke="none">
<path d="M14800 21089 c-1800 -80 -3377 -1265 -3961 -2977 -91 -266 -156 -546
-201 -862 -22 -154 -22 -166 -28 -1965 l-5 -1810 -235 -6 c-198 -5 -247 -9
-312 -28 -102 -28 -168 -54 -248 -98 -258 -140 -448 -383 -533 -679 l-22 -79
-3 -1923 -2 -1922 2462 2 2463 3 12 120 c7 66 18 189 25 273 l14 153 -102 102
c-185 187 -295 391 -350 649 -22 103 -25 341 -5 448 55 305 224 586 464 772
106 81 185 126 302 174 353 142 767 112 1095 -81 312 -183 525 -487 596 -851
23 -119 24 -338 0 -457 -51 -261 -166 -470 -369 -670 l-120 -118 27 -252 c14
-139 26 -255 26 -259 0 -5 1116 -8 2480 -8 l2480 0 -2 1923 -3 1922 -23 80
c-57 198 -146 350 -287 490 -141 141 -287 228 -477 281 -84 24 -115 27 -328
33 l-235 6 -5 1800 c-6 1971 -3 1859 -66 2205 -312 1709 -1596 3074 -3281
3489 -285 70 -540 106 -868 121 -110 5 -202 9 -205 8 -3 -1 -79 -4 -170 -9z
m428 -2210 c504 -54 951 -268 1313 -629 338 -335 529 -704 622 -1195 20 -108
21 -139 24 -1847 l4 -1738 -2191 0 -2191 0 4 1738 c2 1609 4 1744 20 1832 44
237 107 432 203 626 307 629 911 1080 1595 1193 68 11 142 22 164 24 92 8 343
6 433 -4z"/>
<path d="M7313 8380 c-183 -27 -364 -121 -494 -256 -111 -116 -177 -233 -221
-389 l-23 -80 -3 -1895 c-2 -1251 1 -1928 7 -1992 41 -380 318 -681 701 -760
54 -11 1360 -13 7725 -13 7428 0 7662 1 7739 19 330 77 562 304 659 644 l22
77 3 1890 c2 1343 0 1918 -8 1988 -24 213 -111 389 -261 533 -136 128 -298
209 -474 234 -83 11 -15291 12 -15372 0z m15379 -573 c33 -16 76 -49 102 -78
83 -92 76 90 76 -2043 l0 -1901 -24 -51 c-34 -73 -83 -123 -151 -156 l-60 -28
-7635 0 -7635 0 -60 29 c-38 17 -77 46 -102 75 -79 90 -74 -85 -71 2056 3
1836 4 1916 21 1949 46 83 130 150 214 170 22 5 3240 8 7653 8 l7615 -2 57
-28z"/>
<path d="M9209 7257 c-102 -29 -175 -93 -222 -194 -21 -47 -22 -59 -25 -445
l-3 -397 -182 106 c-100 58 -253 146 -341 196 l-158 91 -82 4 c-65 3 -92 0
-137 -17 -75 -29 -141 -88 -176 -159 -24 -49 -28 -69 -28 -142 0 -72 4 -93 27
-140 15 -30 44 -72 65 -92 21 -20 180 -118 353 -218 173 -100 319 -185 323
-189 5 -5 -27 -29 -70 -54 -43 -25 -188 -109 -323 -187 -135 -78 -262 -158
-283 -178 -21 -20 -50 -62 -65 -92 -23 -47 -27 -68 -27 -140 0 -70 4 -94 25
-135 56 -115 167 -185 294 -185 85 0 119 13 309 123 89 52 232 135 317 185
l155 90 5 -397 5 -396 26 -56 c55 -117 166 -191 288 -193 101 -1 164 25 236
98 96 97 95 91 95 554 0 215 2 392 5 392 2 0 44 -23 92 -52 363 -215 588 -338
630 -344 194 -29 365 95 388 281 13 101 -40 229 -118 289 -17 13 -174 106
-347 206 -173 101 -316 183 -317 184 -1 1 142 85 318 187 176 101 338 199 359
217 23 19 53 61 72 100 29 58 33 77 33 142 -1 128 -68 235 -181 291 -37 18
-69 25 -134 27 -85 4 -87 3 -170 -40 -47 -25 -203 -113 -346 -196 -144 -84
-266 -152 -272 -152 -8 0 -12 117 -14 403 -3 393 -3 403 -25 447 -31 62 -98
128 -159 156 -63 30 -154 38 -215 21z"/>
<path d="M13132 7255 c-94 -26 -174 -95 -216 -185 -20 -43 -21 -66 -26 -446
l-5 -401 -310 180 c-170 99 -332 188 -360 199 -71 28 -190 22 -261 -15 -140
-71 -207 -238 -158 -393 32 -104 83 -144 447 -354 175 -100 315 -186 310 -190
-4 -4 -84 -51 -178 -105 -93 -53 -237 -136 -320 -184 -228 -131 -270 -185
-270 -351 0 -87 3 -100 30 -149 74 -135 232 -201 380 -160 31 9 437 236 662
371 l32 19 3 -403 c3 -398 3 -404 26 -449 87 -175 279 -242 449 -157 55 28
118 95 146 156 21 45 22 64 27 449 l5 402 295 -170 c419 -243 378 -224 490
-224 83 0 101 3 145 27 60 31 128 101 150 155 50 117 30 256 -51 352 -27 33
-58 52 -454 281 -135 78 -246 143 -248 144 -1 2 145 88 325 192 224 129 341
202 370 232 78 80 106 217 68 334 -25 74 -119 167 -194 191 -68 22 -168 22
-222 0 -23 -9 -184 -98 -358 -199 l-316 -182 -5 401 c-5 396 -5 403 -29 454
-28 62 -103 136 -165 163 -63 27 -150 33 -214 15z"/>
<path d="M17062 7255 c-29 -8 -62 -20 -74 -26 -42 -23 -110 -95 -136 -144
l-27 -50 -5 -407 -5 -406 -285 165 c-389 225 -406 233 -500 233 -98 0 -175
-35 -242 -109 -80 -89 -102 -216 -58 -334 36 -95 74 -125 433 -331 282 -162
325 -190 310 -200 -29 -20 -146 -87 -368 -214 -115 -66 -234 -137 -263 -157
-156 -108 -181 -335 -53 -477 24 -27 67 -61 95 -76 45 -24 62 -27 146 -27 111
0 72 -17 445 198 143 83 279 161 303 175 l42 24 0 -391 c0 -446 2 -456 85
-549 152 -169 431 -129 532 76 l28 57 5 401 5 402 320 -185 c176 -102 337
-191 359 -199 21 -8 67 -14 102 -14 122 0 230 64 289 171 27 49 30 62 30 149
0 109 -20 162 -84 227 -22 23 -162 111 -356 222 -176 101 -324 187 -328 191
-5 4 135 90 310 191 175 101 338 202 361 223 24 22 56 63 70 91 24 44 27 62
27 145 0 84 -3 101 -27 145 -32 60 -87 115 -148 146 -56 28 -178 38 -236 19
-22 -7 -186 -97 -366 -201 l-327 -188 -3 402 -3 402 -28 57 c-67 137 -232 213
-375 173z"/>
<path d="M20997 7260 c-91 -23 -176 -92 -218 -178 -24 -47 -24 -49 -27 -454
-1 -225 -5 -408 -8 -408 -2 0 -21 11 -42 24 -75 49 -569 330 -620 354 -46 21
-65 23 -135 20 -96 -4 -154 -28 -217 -90 -63 -60 -94 -136 -95 -228 0 -65 4
-84 33 -142 49 -101 30 -87 519 -368 128 -74 231 -135 230 -136 -1 -1 -114
-67 -252 -146 -376 -217 -393 -227 -430 -260 -19 -16 -49 -59 -67 -96 -79
-161 -17 -344 145 -430 46 -24 63 -27 147 -27 112 0 65 -21 481 220 166 96
304 175 306 175 1 0 3 -177 3 -392 0 -463 -1 -457 95 -554 72 -73 135 -99 236
-98 122 2 233 76 288 193 l26 56 5 396 5 396 310 -180 c171 -99 331 -188 358
-198 109 -43 247 -15 336 69 72 67 96 126 96 232 0 106 -26 170 -94 232 -26
24 -185 123 -364 227 -175 101 -315 187 -310 191 4 5 150 90 323 190 173 100
332 198 353 218 21 20 50 62 65 92 23 47 27 68 27 140 0 73 -4 93 -28 142 -35
71 -101 130 -176 159 -45 17 -72 20 -137 17 l-82 -4 -158 -91 c-88 -50 -241
-138 -341 -196 l-182 -106 -3 397 -3 397 -26 55 c-37 78 -81 125 -152 160 -69
33 -157 45 -220 30z"/>
</g>
</svg>
