<?xml version="1.0" standalone="no"?>
<!DOCTYPE svg PUBLIC "-//W3C//DTD SVG 20010904//EN"
 "http://www.w3.org/TR/2001/REC-SVG-20010904/DTD/svg10.dtd">
<svg version="1.0" xmlns="http://www.w3.org/2000/svg"
 width="81.000000pt" height="81.000000pt" viewBox="0 0 81.000000 81.000000"
 preserveAspectRatio="xMidYMid meet">

<g transform="translate(0.000000,81.000000) scale(0.100000,-0.100000)"
fill="#000000b3" stroke="none">
<path d="M75 740 l-69 -70 67 -68 68 -68 -66 -63 c-36 -34 -65 -64 -65 -66 0
-2 29 -32 65 -66 l66 -63 -68 -68 -67 -68 69 -70 69 -70 69 67 68 68 65 -68
65 -68 64 68 63 68 69 -68 69 -67 69 70 69 70 -67 68 -68 69 65 60 c36 33 66
64 66 68 0 4 -30 35 -66 68 l-65 60 68 69 67 68 -69 70 -69 70 -69 -67 -69
-68 -63 68 -64 68 -65 -68 -65 -68 -68 68 -69 67 -69 -70z m272 -152 l63 -62
65 64 65 64 60 -59 60 -59 -65 -66 -65 -66 65 -64 65 -65 -60 -60 -60 -60 -65
65 -65 64 -65 -64 -65 -64 -60 59 -60 59 65 66 65 66 -65 64 -65 64 57 58 c32
32 60 58 62 58 3 0 34 -28 68 -62z"/>
</g>
</svg>
