<?xml version="1.0" standalone="no"?>
<!DOCTYPE svg PUBLIC "-//W3C//DTD SVG 20010904//EN"
 "http://www.w3.org/TR/2001/REC-SVG-20010904/DTD/svg10.dtd">
<svg version="1.0" xmlns="http://www.w3.org/2000/svg"
 width="70.000000pt" height="76.000000pt" viewBox="0 0 70.000000 76.000000"
 preserveAspectRatio="xMidYMid meet">

<g transform="translate(0.000000,76.000000) scale(0.100000,-0.100000)"
fill="#000000" stroke="none">
<path d="M175 681 c-16 -10 -41 -31 -55 -47 l-25 -28 40 30 c22 17 51 38 65
47 34 23 12 21 -25 -2z"/>
<path d="M265 688 c-11 -7 -28 -13 -37 -13 -24 -2 -94 -52 -113 -82 -9 -13
-26 -34 -38 -46 -20 -20 -22 -32 -22 -127 0 -96 2 -109 27 -151 41 -69 118
-122 197 -135 31 -5 41 -11 41 -25 0 -23 7 -23 78 -3 168 49 242 135 242 285
0 94 -20 155 -71 213 -55 62 -112 87 -207 92 -47 2 -85 -1 -97 -8z m220 -82
c49 -38 92 -106 105 -170 15 -72 -6 -139 -65 -204 -88 -98 -189 -115 -318 -54
-78 36 -119 89 -137 178 -18 86 8 195 55 234 13 11 12 6 -4 -26 -54 -104 -42
-226 30 -308 143 -164 415 -72 414 139 -1 160 -150 261 -290 196 -69 -32 -105
-86 -105 -158 0 -78 109 -134 160 -83 31 31 25 47 -20 55 -36 6 -40 10 -40 37
0 47 48 88 103 88 145 0 173 -215 37 -287 -86 -46 -188 -18 -241 65 -25 40
-29 56 -29 117 0 64 3 77 29 112 55 76 114 104 212 100 55 -2 72 -7 104 -31z"/>
</g>
</svg>
