<?xml version="1.0" encoding="UTF-8" standalone="no"?>
<!-- Created with Inkscape (http://www.inkscape.org/) -->

<svg
   xmlns:dc="http://purl.org/dc/elements/1.1/"
   xmlns:cc="http://creativecommons.org/ns#"
   xmlns:rdf="http://www.w3.org/1999/02/22-rdf-syntax-ns#"
   xmlns:svg="http://www.w3.org/2000/svg"
   xmlns="http://www.w3.org/2000/svg"
   xmlns:sodipodi="http://sodipodi.sourceforge.net/DTD/sodipodi-0.dtd"
   xmlns:inkscape="http://www.inkscape.org/namespaces/inkscape"
   id="svg2"
   version="1.1"
   inkscape:version="0.48.3.1 r9886"
   width="231"
   height="117"
   sodipodi:docname="dicedrawn.png">
  <metadata
     id="metadata8">
    <rdf:RDF>
      <cc:Work
         rdf:about="">
        <dc:format>image/svg+xml</dc:format>
        <dc:type
           rdf:resource="http://purl.org/dc/dcmitype/StillImage" />
        <dc:title></dc:title>
      </cc:Work>
    </rdf:RDF>
  </metadata>
  <defs
     id="defs6" />
  <sodipodi:namedview
     pagecolor="#ffffff"
     bordercolor="#666666"
     borderopacity="1"
     objecttolerance="10"
     gridtolerance="10"
     guidetolerance="10"
     inkscape:pageopacity="0"
     inkscape:pageshadow="2"
     inkscape:window-width="1280"
     inkscape:window-height="1005"
     id="namedview4"
     showgrid="false"
     inkscape:zoom="1.3593074"
     inkscape:cx="115.5"
     inkscape:cy="58.5"
     inkscape:window-x="-4"
     inkscape:window-y="-4"
     inkscape:window-maximized="1"
     inkscape:current-layer="svg2" />
  <path
     style="fill:#000000"
     d="m 48.356688,111.24697 c -3.575,-1.41118 -11.320677,-4.41692 -17.212617,-6.67941 l -10.71262,-4.11364 14.53993,-18.97696 c 7.996954,-10.437328 14.888268,-19.337597 15.314028,-19.778375 0.573271,-0.593493 19.252434,28.032853 25.413784,38.947345 0.399821,0.70826 -3.292192,3.47727 -9.666664,7.25 -5.672454,3.35724 -10.507567,6.06194 -10.744697,6.01044 -0.237129,-0.0515 -3.356144,-1.24822 -6.931144,-2.6594 z  m 21.719047,-6.75639 5.219047,-3.13994 L 63.659603,82.674784 C 57.260254,72.403065 51.896675,64.12668 51.740538,64.282817 c -0.156138,0.156137 0.583034,10.618878 1.642603,23.250535 1.05957,12.631658 1.937078,23.571908 1.950018,24.311668 0.02353,1.345 1.541339,0.58782 14.742576,-7.35444 z M 64.917608,100.25 c -0.360742,-1.5125 -0.910104,-3.65 -1.220802,-4.75 -0.385262,-1.363983 -0.235902,-1.681992 0.469671,-1 1.09472,1.05813 2.766872,8.5 1.90991,8.5 -0.276586,0 -0.798036,-1.2375 -1.158779,-2.75 z m -8.896309,-8.424527 c -0.312758,-1.195989 -0.106265,-2.883489 0.458874,-3.75 0.891042,-1.366207 0.955252,-1.343025 0.483405,0.174527 -0.719786,2.314976 0.327998,4.908275 1.652403,4.089748 0.612982,-0.378844 0.752859,-0.168427 0.336199,0.505744 -1.105271,1.788365 -2.305726,1.370577 -2.930881,-1.020019 z m 7.442372,-1.196566 c -0.723606,-0.871892 -0.828146,-2.208456 -0.287126,-3.67097 0.616616,-1.666872 1.068984,-1.946813 1.643576,-1.017103 0.463469,0.749908 0.247039,1.62007 -0.521016,2.094754 -1.082519,0.669034 -1.083517,1.089471 -0.0057,2.388197 C 65.012913,91.290703 65.376577,92 65.101577,92 c -0.275,0 -1.012057,-0.616992 -1.637906,-1.371093 z M 54.355295,111.75 C 54.354529,111.6125 53.455156,100.7 52.356688,87.5 51.25822,74.3 50.358847,63.337966 50.358081,63.139924 50.357315,62.941882 46.531688,67.7513 41.856688,73.827521 33.590441,84.57138 32.126831,86.878128 34.511191,85.404508 c 0.72104,-0.445627 0.88283,-0.273932 0.43091,0.457295 -0.39799,0.643952 -1.11854,0.926739 -1.60124,0.628417 -1.16975,-0.722949 -11.2459,12.654211 -10.25609,13.61606 1.43142,1.39101 31.275315,12.50351 31.270524,11.64372 z m -15.919664,-7.43261 c -0.0455,-1.2588 -0.92515,-2.45119 -2.07819,-2.81715 -2.2008,-0.69851 -1.8224,-1.90156 2.04455,-6.50024 l 2.102207,-2.5 -0.450918,4.75 c -0.29609,3.11904 -0.0639,4.75526 0.676245,4.76531 0.811783,0.011 0.819367,0.22088 0.02711,0.75 -0.605031,0.40408 -1.357004,1.40969 -1.671053,2.23469 -0.389631,1.02354 -0.596071,0.80672 -0.649941,-0.68261 z m 0.767099,-6.34787 c 0.302121,-2.072531 0.143467,-2.205703 -1.249999,-1.049228 -1.88703,1.566096 -2.14522,4.427238 -0.34604,3.834718 0.6875,-0.22642 1.40572,-1.479887 1.596039,-2.78549 z M 36.938481,90.75 c -0.25096,-1.2375 -0.71119,-3.459922 -1.02272,-4.938715 -0.31153,-1.478793 -0.11476,-2.96785 0.43726,-3.309017 0.61734,-0.381539 1.00367,1.194184 1.00367,4.093703 l 0,4.714004 L 39.51149,89.404988 41.666291,87.5 39.89648,90.25 c -2.143079,3.329999 -2.376079,3.369383 -2.957999,0.5 z m 7.918207,-1.268108 c 1.1,-0.895643 2.9,-2.070292 4,-2.610333 2,-0.981891 2,-0.981891 0,0.646549 -1.1,0.895643 -2.9,2.070292 -4,2.610333 -2,0.981891 -2,0.981891 0,-0.646549 z m 63.129712,20.270478 -9.870291,-4.074 0.719617,-15.089185 c 0.395789,-8.299052 0.787419,-15.160328 0.870289,-15.247281 0.08287,-0.08695 5.154505,-0.892586 11.270295,-1.790298 l 11.11962,-1.632203 10.65572,2.670072 10.65573,2.670071 -0.27534,15.120227 -0.27535,15.120227 -12.5,3.18946 c -6.875,1.7542 -12.5,3.17763 -12.5,3.16318 0,-0.0144 -4.44163,-1.85957 -9.87029,-4.10027 z m 9.64727,-27.817166 c -0.42734,-0.395314 -4.4423,-1.826455 -8.92214,-3.180313 l -8.14515,-2.46156 -0.721596,13.936587 c -0.396876,7.665122 -0.331555,14.312522 0.145156,14.771992 0.47671,0.45947 4.69175,2.36102 9.36675,4.22566 l 8.5,3.39027 0.27698,-14.981942 c 0.15234,-8.240068 -0.0727,-15.30538 -0.5,-15.700694 z m -11.68369,18.894526 c -3.14801,-4.494417 -1.22034,-13.903335 2.81723,-13.750783 1.43128,0.05408 1.61697,0.247819 0.58948,0.615034 -1.82745,0.653116 -4,3.274591 -4,4.82655 0,0.626049 0.99319,1.102541 2.20709,1.05887 4.12626,-0.148444 5.05376,7.833649 1.06476,9.163319 -0.5969,0.19896 -1.80225,-0.66188 -2.67856,-1.91299 z m 4.04594,-0.33197 C 110.89143,98.164102 109.48818,94 107.80625,94 c -2.13462,0 -2.91033,2.6933 -1.60246,5.56377 1.25513,2.75471 2.93471,3.16839 3.79213,0.93399 z m 21.34203,8.91846 11.01874,-2.58379 0,-14.435265 0,-14.435269 -2.25,0.496245 c -1.2375,0.272934 -5.175,0.971275 -8.75,1.551867 -3.575,0.580593 -7.7375,1.301611 -9.25,1.602263 l -2.75,0.54664 0,14.920544 c 0,8.206295 0.21657,14.920545 0.48126,14.920545 0.26469,0 5.43969,-1.1627 11.5,-2.58378 z m -2.31081,-8.29536 c 2.1331,-1.78142 2.1374,-1.840903 0.25,-3.456947 -2.32797,-1.993267 -2.47431,-4.967191 -0.34902,-7.092484 1.81337,-1.813372 3.3114,-1.958451 5.42857,-0.525739 1.13154,0.765725 0.86768,0.868992 -1.0742,0.420401 -4.89318,-1.130366 -6.73704,4.822565 -2.19511,7.086962 1.69164,0.843377 1.93691,1.379343 1.04114,2.275117 -0.89577,0.89577 -0.59467,1.19531 1.27817,1.27151 l 2.45,0.0997 -2.5,0.80062 c -1.375,0.44035 -3.4,0.83052 -4.5,0.86705 -1.93255,0.0642 -1.9268,0.005 0.17045,-1.74619 z m 40.95548,8.22731 c -1.71188,-8.46323 -5.70936,-32.594072 -5.44013,-32.83937 0.17281,-0.157449 8.03447,-0.611069 17.47036,-1.008045 l 17.15616,-0.721776 1.17741,5.671544 c 0.64757,3.119349 0.91996,6.34245 0.60529,7.162448 -0.31466,0.819997 -0.18681,1.252777 0.28411,0.961732 0.47092,-0.291045 1.62344,3.398083 2.56115,8.198062 0.93772,4.799975 1.93334,9.689105 2.2125,10.864725 0.55635,2.34297 2.90831,1.99367 -26.80176,3.98046 l -8.64899,0.57838 -0.5761,-2.84816 z m 26.69436,0.077 c 7.70162,-0.53826 8.72963,-0.82627 8.10545,-2.27082 -0.39316,-0.90991 -0.74622,-2.40884 -0.78458,-3.33096 -0.0384,-0.92212 -0.33551,-1.51232 -0.66034,-1.31156 -0.32484,0.20075 -2.7313,-3.944389 -5.3477,-9.211435 -2.62656,-5.28749 -5.12933,-9.178739 -5.58822,-8.688437 -0.45711,0.488437 -4.97732,5.838042 -10.0449,11.888042 -9.59213,11.45169 -11.80683,13.9113 -10.60436,11.77697 0.37898,-0.67266 4.945,-6.26671 10.14671,-12.431206 5.20171,-6.164501 9.45765,-11.495486 9.45765,-11.846634 0,-0.351148 -4.55505,-1.713752 -10.12234,-3.02801 -5.56729,-1.314258 -9.6667,-2.541441 -9.1098,-2.727073 0.55689,-0.185631 5.44824,0.788834 10.86965,2.165478 l 9.85712,2.50299 2.21672,-2.706258 c 3.70725,-4.525951 2.93474,-5.209809 -3.05711,-2.706257 -4.47745,1.870799 -6.22941,1.833409 -2.15424,-0.04597 l 3,-1.383538 -3.25394,0.302032 c -1.78967,0.166118 -3.4395,0.487759 -3.6663,0.714757 -0.22679,0.226998 -4.97045,0.36996 -10.54147,0.317693 l -10.12913,-0.09503 0.51206,2.595031 c 0.28163,1.427261 1.43758,7.995025 2.56877,14.595025 1.1312,6.6 2.28954,13.05137 2.5741,14.33638 0.57362,2.5904 -2.03084,2.53085 25.7562,0.58882 z m 0.60623,-3.07524 c 0.80833,-1.67616 0.70194,-2.27856 -0.48269,-2.73314 -0.85507,-0.32812 -1.76841,0.0654 -2.08867,0.90004 -0.69249,1.80459 -4.73561,1.95927 -6.09388,0.23314 -1.25746,-1.59801 0.75337,-6.593051 2.42622,-6.026896 0.78538,0.265803 0.51906,1.070339 -0.78647,2.375866 -1.08569,1.08569 -1.70601,2.40757 -1.37849,2.9375 0.90989,1.47223 4.27556,1.14673 5.19866,-0.50276 0.51987,-0.92896 1.63746,-1.25268 3.04969,-0.88337 2.64034,0.69046 2.74869,1.31887 0.67394,3.90853 -1.50708,1.88112 -1.52311,1.87466 -0.51831,-0.20891 z M 174.06554,95.375516 c -0.38987,-0.389867 -0.70885,-1.308849 -0.70885,-2.042183 0,-0.733333 -0.9,-2.233333 -2,-3.333333 -2.53477,-2.534768 -2.52059,-3.651019 0.0639,-5.03421 2.70834,-1.44946 5.2478,0.476713 4.35152,3.300622 -0.36765,1.158367 -0.23027,1.737183 0.3301,1.39085 0.5279,-0.326258 1.81361,0.04103 2.85714,0.816202 1.51143,1.122741 1.67316,1.777241 0.79519,3.217967 -1.15978,1.903186 -4.48545,2.88766 -5.68902,1.684085 z m 4.96825,-1.976441 c 0.7001,-1.824416 -1.33209,-3.468699 -3.33642,-2.699566 -0.73737,0.282958 -1.34068,1.366324 -1.34068,2.40748 0,2.362683 3.79167,2.599474 4.6771,0.292086 z m -4.25131,-5.066292 c 0.35188,-0.91697 0.19409,-2.112898 -0.35063,-2.657619 -1.34528,-1.345282 -4.1289,1.021223 -3.40873,2.897949 0.74586,1.943685 2.97599,1.801117 3.75936,-0.24033 z M 194.53729,51.654791 182.21788,48.5 l -5.45081,-12.999998 -5.45081,-13 5.27022,-4.8023 c 2.89861,-2.64126 8.01733,-7.25132 11.37493,-10.2445695 l 6.10472,-5.44228 11.3317,1.49457 c 6.23244,0.82202 11.66121,1.49458 12.06395,1.49458 0.40274,0 3.2294,6.3695095 6.28146,14.1544595 l 5.54921,14.15447 -10.07931,10.845535 c -5.54363,5.965043 -10.59168,10.802689 -11.21789,10.750324 -0.62621,-0.05237 -6.68229,-1.514865 -13.45796,-3.25 z m 15.01743,0.876576 c 0.28271,0.282708 4.32339,-3.658696 8.9793,-8.758676 8.43739,-9.242139 11.21372,-12.750439 9.01467,-11.391359 -0.61436,0.3797 -3.38389,-0.45835 -6.15451,-1.86233 -2.77062,-1.40398 -5.07165,-2.43261 -5.1134,-2.28585 -0.0418,0.14677 -1.57816,5.66685 -3.41424,12.266848 -1.83608,6.6 -3.36669,11.325 -3.40135,10.5 -0.0346,-0.825 1.2852,-6.45 2.933,-12.5 l 2.996,-10.999998 -2.82327,-2.5 c -1.55279,-1.375 -7.05499,-5.5375 -12.2271,-9.25 -5.17211,-3.7125 -9.07474,-6.7499995 -8.67251,-6.7499995 0.40222,0 5.70996,3.6360195 11.79498,8.0800395 6.08501,4.44402 11.29918,7.84451 11.58704,7.55665 0.75517,-0.75517 2.52537,-17.7480095 1.91269,-18.3606995 -1.03088,-1.03088 -24.97945,1.66572 -26.14525,2.94395 -0.64211,0.70403 -1.70224,5.7800595 -2.35584,11.2800595 -0.6536,5.5 -1.42648,11.21649 -1.71751,12.70332 l -0.52914,2.70333 13.29832,-4.46029 c 7.31408,-2.45316 13.67348,-4.33523 14.13201,-4.18239 0.45853,0.15285 -5.26957,2.27481 -12.72911,4.71548 -7.45955,2.44067 -13.56281,4.74501 -13.56281,5.12076 0,0.37575 4.49169,4.040231 9.98153,8.14329 5.48984,4.103059 9.65234,7.849459 9.25,8.325335 -0.40234,0.475875 -0.0151,0.321467 0.86048,-0.343129 0.8756,-0.664596 1.82332,-0.977049 2.10602,-0.694341 z M 199.49169,41.295001 c -1.269,-2.637251 -1.7285,-4.232499 -1.02113,-3.544999 C 199.17793,38.4375 200.56669,39 201.55669,39 c 1.86843,0 2.23508,2.041757 0.95084,5.295001 -0.56784,1.438464 -1.16687,0.84258 -3.01584,-3 z m 2.46917,-1.024168 c -1.01652,-1.016515 -1.85525,0.513892 -1.02122,1.863382 0.63003,1.019417 0.86558,1.020206 1.2043,0.004 0.2316,-0.694785 0.14921,-1.535121 -0.18308,-1.867413 z m 4.50694,-0.381944 c -0.61607,-1.767267 -0.94513,-3.388207 -0.73124,-3.602097 0.21389,-0.21389 0.89295,1.05706 1.50902,2.824319 0.61607,1.767262 0.94513,3.388204 0.73124,3.602093 -0.21389,0.213889 -0.89295,-1.057053 -1.50902,-2.824315 z m 10.29068,-0.635358 c 1.45942,-1.723919 2.2154,-1.986199 3.25,-1.127559 0.74152,0.615406 1.34821,1.378817 1.34821,1.696473 0,0.317655 -0.53386,0.0437 -1.18635,-0.608791 -0.91512,-0.915132 -1.65813,-0.78939 -3.25,0.55 -2.05839,1.731918 -2.0588,1.730617 -0.16186,-0.510123 z m -23.40179,-8.188429 c 0,-0.5142 0.45322,-2.12696 1.00715,-3.58392 1.22955,-3.23396 0.38003,-5.0474 -1.59618,-3.4073 -0.85284,0.7078 -1.41097,0.76933 -1.41097,0.15555 0,-1.43406 2.43558,-2.19629 3.97594,-1.2443 1.01602,0.62793 1.0503,1.50083 0.15932,4.0567 -1.46897,4.21391 -1.47056,4.20798 0.799,2.99335 2.95399,-1.58093 3.91284,-1.16273 1.06574,0.46482 -2.95769,1.69077 -4,1.83802 -4,0.5651 z m 5.48481,-6.09447 c -2.604,-5.0356 1.00719,-7.20176 4.11043,-2.46563 1.32269,2.01868 1.40046,2.79525 0.40061,4 -1.81022,2.18118 -2.756,1.85949 -4.51104,-1.53437 z m 4.00242,1.05003 c 0.87379,-1.41382 -1.29751,-5.02066 -3.02241,-5.02066 -1.76609,0 -1.78416,0.20501 -0.3043,3.45294 1.22164,2.68122 2.31894,3.19832 3.32671,1.56772 z m 3.48528,-10.77066 -2.47251,-1.75 3.92183,-0.5 c 4.16505,-0.53101 5.90108,-2.5178 2.88351,-3.3000195 -1.56727,-0.40627 -1.58235,-0.48328 -0.11436,-0.58398 0.93004,-0.0638 1.98128,0.35371 2.33609,0.9277995 1.01687,1.64534 -1.51855,3.9562 -4.34064,3.9562 -2.4733,0 -2.4966,0.0545 -0.62756,1.46819 2.74765,2.07822 1.39536,1.89222 -1.58636,-0.21819 z m -0.97251,37.371843 c 0,-0.66041 -18.91192,-14.621843 -19.8065,-14.621843 -0.4711,0 -1.32352,2.040658 -1.89426,4.534799 -1.15598,5.051662 -0.72395,5.600646 5.45076,6.926342 2.09042,0.448808 3.25,0.312624 3.25,-0.381688 0,-0.5937 -0.7875,-1.114981 -1.75,-1.158402 -1.00188,-0.0452 -1.22664,-0.290902 -0.52576,-0.574747 0.67333,-0.27269 2.23596,0.212837 3.47251,1.078947 1.55097,1.086341 1.79157,1.60452 0.77576,1.670744 -0.80988,0.0528 0.77749,0.674341 3.52749,1.381205 5.50031,1.413811 7.5,1.719001 7.5,1.144643 z M 187.41031,21.241472 c 0.93678,-7.00781 1.55653,-12.9053795 1.37724,-13.1057095 -0.1793,-0.20033 -3.9275,2.9301795 -8.32935,6.9566795 -5.49152,5.02326 -7.70763,7.67723 -7.06111,8.45624 0.51824,0.62444 0.60865,1.50358 0.20092,1.95365 -0.40772,0.45008 -0.2545,0.54138 0.34051,0.20291 0.59501,-0.33848 3.26788,1.60401 5.93971,4.31663 2.67184,2.71262 5.07635,4.71357 5.34337,4.44655 0.26701,-0.26701 1.25193,-6.21914 2.18871,-13.22695 z m -7.80362,3.67559 c -2.99862,-1.1363 -2.84965,-3.32281 0.32494,-4.76925 2.98662,-1.3608 4.42506,-0.77933 4.42506,1.78876 0,2.65598 -2.11094,3.98053 -4.75,2.98049 z m 3.67971,-3.22608 c -0.0678,-2.11237 -0.10112,-2.11922 -0.92971,-0.19098 -1.18278,2.75248 -1.18278,3.731 0,3 0.55,-0.33992 0.96837,-1.60398 0.92971,-2.80902 z m -2.92971,0.75 c 0,-0.85746 -0.45,-1.2809 -1,-0.94098 -0.55,0.33992 -1,1.04147 -1,1.55901 0,0.51755 0.45,0.94099 1,0.94099 0.55,0 1,-0.70156 1,-1.55902 z M 11.665701,52.75 c -0.44496,-0.6875 -0.95868,-9.01236 -1.14161,-18.499688 -0.30618,-15.87919 -0.18925,-17.3047 1.47172,-17.94207 0.99237,-0.38081 8.5128,-0.71845 16.71206,-0.75031 l 14.907753,-0.0579 1.996022,2.65656 c 1.882882,2.50598 1.954534,3.59713 1.264079,19.25 l -0.731943,16.593438 -16.834531,0 c -12.36948,0 -17.04911,-0.331539 -17.64355,-1.25 z m 16.69099,-1.703489 c 1.33333,-0.06857 1.33333,-0.184845 0,-1.046511 -1.97586,-1.276897 -5.28917,-1.276897 -4.5,0 0.33992,0.55 0.18962,1 -0.334,1 -0.52361,0 -1.17573,-0.582962 -1.44915,-1.295472 -0.65094,-1.69633 2.95928,-2.005792 6.54934,-0.561399 2.19016,0.88117 2.52908,1.398624 1.62755,2.484898 C 29.302601,52.770091 30.379241,53 36.675221,53 c 4.159891,0 7.781355,-0.352605 8.047703,-0.783566 0.266349,-0.430961 0.810101,-7.907612 1.208337,-16.614782 0.697615,-15.25288 0.654682,-15.8114 -1.175253,-15.28877 -1.044626,0.29835 -4.14932,0.85195 -6.899317,1.23024 -4.91732,0.67641 -5.04961,0.78727 -8,6.70413 l -3,6.01634 8.52697,8.618206 L 43.910634,51.5 35.862771,43.75 c -4.42632,-4.2625 -8.83278,-7.749998 -9.79212,-7.749998 -2.0471,0 -12.02168,5.460926 -13.7264,7.514987 -0.73058,0.880289 -0.93102,2.86024 -0.5299,5.234417 l 0.64514,3.818578 7.1986,-0.722169 c 3.95923,-0.397193 7.8736,-0.75688 8.6986,-0.799304 z m 1.5,-3.531017 c -1.65,-0.727138 -3.225,-1.187822 -3.5,-1.023742 -0.275,0.16408 -1.16026,-0.415099 -1.96725,-1.287065 -1.30539,-1.410515 -1.26384,-1.507339 0.37675,-0.877787 1.0142,0.389184 2.38565,0.258071 3.04767,-0.29136 0.85223,-0.707289 2.03777,-0.128367 4.06035,1.982747 3.08964,3.224893 2.64748,3.553023 -2.01752,1.497207 z m 0.50913,-2.004484 c -0.67966,-0.818944 -1.71739,-1.191318 -2.30606,-0.827497 -0.64782,0.400372 -0.30704,0.960397 0.8633,1.418704 2.75973,1.080717 2.81242,1.059126 1.44276,-0.591207 z m 5.54935,-5.446384 c -1.22657,-1.35535 -1.5935,-2.788984 -1.15795,-4.524334 0.77348,-3.08181 2.00455,-3.22774 3.93835,-0.46685 0.828391,1.18269 1.718965,1.64198 2.073021,1.0691 0.341396,-0.55239 0.163379,-1.287 -0.395592,-1.63246 -1.877669,-1.16046 -1.147086,-4.51008 0.983688,-4.51008 1.11908,0 2,0.66666 2,1.51357 0,0.83246 0.551232,2.39623 1.224959,3.47504 1.643394,2.63149 -0.335656,4.994334 -2.605377,3.11063 -1.20567,-1.00062 -1.523134,-0.82101 -1.792382,1.014056 -0.439418,2.994875 -2.087027,3.362062 -4.268717,0.951328 z m 3.441517,-0.630367 c 0,-2.383957 -1.979007,-5.565267 -3.050177,-4.903247 -1.32793,0.82071 -1.18486,3.833948 0.25018,5.268988 1.65234,1.65234 2.799997,1.502431 2.799997,-0.365741 z m 5,-2.934257 c 0,-0.825 -0.423442,-1.5 -0.940983,-1.5 -1.260978,0 -2.164095,1.56159 -1.365164,2.36052 1.126184,1.126182 2.306147,0.68589 2.306147,-0.86052 z m -2,-4 c 0,-0.825 -0.45,-1.5 -1,-1.5 -0.55,0 -1,0.675 -1,1.5 0,0.825 0.45,1.5 1,1.5 0.55,0 1,-0.675 1,-1.5 z m -22.536277,5.05741 c 4.86683,-2.72169 6.71927,-4.47763 8.8461,-8.38533 1.4796,-2.71851 2.69018,-5.20779 2.69018,-5.53173 0,-1.17181 -5.8086,-3.55228 -12.39543,-5.07987 -3.70077,-0.85826 -6.92576,-1.56048 -7.16663,-1.56048 -0.24087,0 -0.43794,5.4 -0.43794,12 0,8.40032 0.34614,11.999998 1.1539,11.999998 0.63464,0 3.92406,-1.549165 7.30982,-3.442588 z m -2.5637,-5.19073 c 0.60499,-0.29334 1.09998,-1.22595 1.09998,-2.07246 0,-1.23414 -0.28855,-1.29964 -1.4562,-0.33058 -1.6398,1.36092 -3.5438,0.60031 -3.5438,-1.41567 0,-2.23943 3.30867,-2.84633 4.75252,-0.87174 1.56171,2.13576 1.26743,4.54908 -0.6025,4.94091 -0.74249,0.15559 -0.85499,0.0429 -0.25,-0.25046 z m -0.0875,-4.30418 c 0.25,-0.75 -0.125,-1.125 -0.875,-0.875 -0.72188,0.24062 -1.50938,1.02812 -1.75,1.75 -0.25,0.75 0.125,1.125 0.875,0.875 0.72187,-0.24063 1.50937,-1.02813 1.75,-1.75 z m 2.16233,-2.10953 c -0.85638,-1.60015 -0.86684,-2.46097 -0.04,-3.28786 1.52389,-1.52388 4.56512,0.42817 4.56512,2.93018 0,2.68541 -3.14631,2.9341 -4.52517,0.35768 z m 4.02517,-0.48436 c 0,-1.51308 -2.63652,-3.16543 -3.56667,-2.23528 -0.26423,0.26423 -0.19667,1.21982 0.15012,2.12354 0.79561,2.07333 3.41655,2.15905 3.41655,0.11174 z M 73.713068,53.256339 C 64.621365,52.92963 64.562389,52.910771 63.330278,49.936193 62.413142,47.72203 62.276895,42.858932 62.805983,31.222312 c 0.39317,-8.64727 1.015425,-16.01708 1.382789,-16.37735 0.367365,-0.36028 8.094195,-0.97249 17.170734,-1.36047 15.389712,-0.65784 16.663075,-0.57564 18.879094,1.21879 l 2.3763,1.92421 -0.73751,18.68625 L 101.13987,54 91.998289,53.792458 C 86.97042,53.67831 78.74207,53.437056 73.713068,53.256339 z m 25.99366,-1.013667 c 0.924322,-1.495586 1.919982,-35.24234 1.038582,-35.20145 -0.48873,0.0227 -2.909454,1.03517 -5.379385,2.25 -3.588037,1.76476 -5.042079,3.3144 -7.233247,7.70878 -1.508354,3.025 -2.750002,5.96917 -2.759216,6.5426 -0.0092,0.57343 3.133246,4.765912 6.983246,9.316624 3.85,4.550711 7,8.54404 7,8.874064 0,0.330024 -0.167679,0.412543 -0.37262,0.183377 C 98.779147,51.6875 95.577931,47.9 91.870274,43.5 c -3.707657,-4.4 -7.110783,-8.140268 -7.562501,-8.311708 -0.451719,-0.17144 -4.113002,1.22971 -8.136186,3.11366 -4.023183,1.883946 -8.552379,3.927066 -10.064879,4.540265 -1.894308,0.767991 -2.75,1.840006 -2.75,3.445215 0,4.61563 1.869308,5.631986 11,5.980778 18.487007,0.706202 24.901774,0.69974 25.35002,-0.02554 z m -16.35002,-2.315896 c 0,-0.738307 -0.940975,-0.907422 -2.655143,-0.477194 -1.663463,0.417503 -2.936136,0.211742 -3.40748,-0.550908 C 76.233372,47.182404 77.274975,45 79.154826,45 c 1.317627,0 1.274141,0.226678 -0.258479,1.347357 -2.371706,1.734233 -0.382049,3.173854 2.359024,1.706877 1.420545,-0.760253 2.060493,-0.705695 2.390013,0.203756 0.353828,0.976536 0.927801,0.959049 2.685314,-0.08181 1.229413,-0.728103 1.938145,-0.843023 1.57496,-0.255377 -1.116702,1.806856 -4.54895,3.320395 -4.54895,2.005973 z m 11.184982,-15.002464 0.184983,-6.42431 0.370898,5.35441 c 0.362428,5.232142 0.415296,5.314241 2.315018,3.59502 2.869021,-2.59643 2.366587,-1.19495 -0.555881,1.550568 l -2.5,2.348628 0.184982,-6.424316 z m -22.184982,4.394064 c 1.925,-0.77849 5.015628,-2.406094 6.868063,-3.616904 3.639075,-2.37861 11.522643,-13.714 10.348601,-14.87974 -0.738089,-0.73287 -24.340671,-6.06197 -24.745415,-5.58714 -0.124426,0.14597 -0.548203,6.24698 -0.941726,13.5578 l -0.715496,13.292388 2.842987,-0.675483 c 1.563642,-0.371516 4.417986,-1.31243 6.342986,-2.090921 z M 70.159925,26.800172 c -1.906244,-2.93771 -1.26307,-4.80017 1.657672,-4.80017 2.761038,0 4.8322,2.23285 4.361471,4.70196 -0.520395,2.72962 -4.271935,2.79083 -6.019143,0.0982 z m 5.196783,-0.83156 c 0,-2.2498 -2.17481,-3.49925 -4.522647,-2.5983 -1.268075,0.48661 -1.311453,0.92247 -0.259453,2.60699 1.665887,2.66751 4.7821,2.66185 4.7821,-0.009 z M 125.51635,52.14724 c -4.26106,-1.617143 -7.57975,-5.568928 -6.41158,-7.634691 0.31493,-0.556902 0.19927,-0.673879 -0.257,-0.259948 -0.45628,0.41393 -2.24721,-1.74857 -3.97984,-4.805555 l -3.15025,-5.558154 4.94828,-9.69445 c 2.72155,-5.33194 6.09952,-10.93194 7.5066,-12.44444 2.44056,-2.6234095 2.97555,-2.7464595 11.62124,-2.6731495 14.10831,0.11963 15.79223,0.9395095 21.71188,10.5712195 l 5.0078,8.14808 -1.69908,3.35192 c -0.9345,1.84356 -4.16725,7.739428 -7.18388,13.101928 l -5.4848,9.75 -9.14451,-0.10276 c -5.83872,-0.06561 -10.71356,-0.698245 -13.48486,-1.75 z m 24.68242,-3.405489 c 1.28813,-2.332963 4.37156,-7.963684 6.85207,-12.512719 l 4.51,-8.27096 -4.10192,-6.72904 c -2.25605,-3.70097 -4.46724,-7.29348 -4.91375,-7.98336 -0.64056,-0.98969 -2.02928,-1.00982 -6.58244,-0.0954 -5.71698,1.14814 -5.76568,1.18767 -5.24119,4.25433 0.29118,1.70248 0.81851,5.5904 1.17183,8.63982 l 0.64241,5.54441 6.3538,3.42893 c 3.49459,1.88591 6.1974,3.585324 6.00624,3.776479 -0.19115,0.191156 -3.42815,-1.323539 -7.19333,-3.365999 l -6.84578,-3.71355 -6.62564,4.17639 c -6.49412,4.093484 -6.6393,4.279287 -7.31325,9.35983 -0.92865,7.000484 0.2239,7.751473 11.88002,7.740859 l 9.05887,-0.0082 2.34206,-4.241752 z m -13.21072,-0.529238 c -0.306,-0.495113 -0.10208,-2.545475 0.45316,-4.556359 0.77446,-2.804896 1.52243,-3.652589 3.2125,-3.640841 3.21389,0.02234 5.13332,1.491098 4.08112,3.122884 -0.48297,0.748991 -0.87812,2.261803 -0.87812,3.361803 0,1.512833 -0.76879,2.074624 -3.15615,2.306359 -1.73588,0.168497 -3.40651,-0.09873 -3.71251,-0.593846 z m 6.14247,-1.39107 c -0.21606,-0.648207 -1.16637,-1.660707 -2.1118,-2.25 -1.30475,-0.813269 -1.94935,-0.710005 -2.67516,0.428557 -1.55364,2.437153 -1.16031,3 2.09648,3 1.92254,0 2.93544,-0.443696 2.69048,-1.178557 z M 143.85671,42 c -0.33992,-0.55 -1.49148,-1 -2.55902,-1 -1.06754,0 -1.94098,0.45 -1.94098,1 0,0.55 1.15156,1 2.55902,1 1.45136,0 2.2915,-0.432842 1.94098,-1 z m 5.15499,-11.828738 c -1.87528,-2.07216 -2.07402,-3.98532 -0.64107,-6.17126 0.7089,-1.08142 0.82009,-0.64721 0.39848,1.55601 -0.69505,3.63211 1.42475,5.94784 4.53961,4.95922 2.64416,-0.83922 2.58888,-2.29835 -0.20201,-5.33223 l -2.25,-2.44589 2.26117,1.37897 c 3.15202,1.92224 3.91467,4.91656 1.67025,6.55772 -2.44613,1.78866 -3.81033,1.66997 -5.77643,-0.50254 z m 0.48535,-10.31846 c -1.84781,-0.53175 -3.17251,-1.15397 -2.94377,-1.38271 0.50499,-0.50498 7.80343,1.43752 7.80343,2.07691 0,0.58924 -0.79382,0.47584 -4.85966,-0.6942 z m -12.83331,13.59313 4.80704,-2.94593 -0.5838,-4.5 c -0.32109,-2.475 -0.83631,-6.1875 -1.14493,-8.25 l -0.56114,-3.75 -8.19281,0 -8.19282,0 -3.67295,7.42289 -3.67294,7.4229 6.16822,5.05153 c 5.5135,4.515349 6.38426,4.915829 8.20366,3.77304 1.11949,-0.70318 4.19861,-2.60417 6.84247,-4.22443 z m -12.11842,-4.99462 c -3.01248,-6.2006 -2.67678,-7.06854 0.42682,-1.10351 1.38727,2.66628 2.35119,5.01891 2.14205,5.22806 -0.20915,0.20914 -1.36514,-1.64691 -2.56887,-4.12455 z m 5.33655,1.38451 c 0.39293,-1.2847 1.34142,-3.86742 2.10776,-5.73936 1.76823,-4.31931 1.05061,-5.00425 -2.94748,-2.81325 l -3.18544,1.74566 2.36078,-2.01443 c 4.55045,-3.88287 6.93393,-2.16071 4.63258,3.3472 -2.13509,5.11 -1.88521,5.91652 1.25664,4.05592 2.58755,-1.53234 2.63186,-1.52938 0.75,0.0502 -1.1,0.92332 -2.83008,2.13441 -3.84463,2.69132 -1.61797,0.88813 -1.75684,0.72554 -1.13021,-1.32328 z"
     id="path2987"
     inkscape:connector-curvature="0" />
</svg>
